<?xml version="1.0" encoding="UTF-8"?>
<svg xmlns="http://www.w3.org/2000/svg" xmlns:xlink="http://www.w3.org/1999/xlink" width="192px" height="192px" viewBox="0 0 192 192" version="1.1">
<g id="surface1">
<path style=" stroke:none;fill-rule:nonzero;fill:rgb(100%,1.568628%,1.568628%);fill-opacity:1;" d="M 108.75 6.515625 C 110.949219 8.234375 112.839844 10.109375 114.75 12.140625 C 118.53125 15.996094 121.992188 17.332031 127.359375 17.4375 C 129.4375 17.394531 130.738281 17.171875 132.75 16.5 C 139.789062 15.941406 146.445312 15.621094 152.25 20.25 C 156.667969 24.816406 158.835938 29.003906 159.703125 35.308594 C 160.679688 42.285156 162.15625 46.640625 167.8125 51.140625 C 169.191406 51.910156 170.585938 52.65625 172.015625 53.324219 C 178.121094 56.1875 182.714844 59.523438 185.25 66 C 187.394531 73.210938 185.539062 79.855469 182.160156 86.371094 C 181.894531 86.855469 181.632812 87.34375 181.359375 87.84375 C 179.164062 92.117188 178.671875 96.214844 180.09375 100.828125 C 181.292969 104.003906 182.828125 106.996094 184.4375 109.980469 C 186.699219 114.898438 186.644531 120.582031 185.15625 125.71875 C 182.9375 131.648438 178.730469 135.113281 173.25 138 C 172.625 138.273438 172 138.546875 171.359375 138.824219 C 166.324219 141.046875 163.335938 143.304688 161.25 148.5 C 160.496094 151.484375 159.957031 154.503906 159.398438 157.527344 C 158.039062 164.484375 155.207031 169.089844 149.300781 173.136719 C 144.429688 175.851562 138.582031 176.222656 133.167969 175.132812 C 127.96875 174.097656 122.785156 174.171875 117.984375 176.546875 C 115.355469 178.371094 113.257812 180.679688 111.066406 182.992188 C 106.617188 187.585938 101.953125 189.414062 95.613281 189.824219 C 88.53125 189.535156 83.566406 185.648438 78.84375 180.703125 C 74.3125 176.117188 71.179688 174.683594 64.78125 174.5625 C 61.867188 174.644531 59.117188 174.988281 56.25 175.5 C 49.703125 175.9375 44.242188 174.777344 39.09375 170.53125 C 34.65625 166.203125 33.222656 162.15625 32.230469 156.089844 C 30.964844 148.09375 30.964844 148.09375 26.25 141.75 C 23.792969 140.132812 21.242188 138.714844 18.617188 137.386719 C 15.347656 135.726562 12.988281 134.023438 10.5 131.25 C 9.957031 130.648438 9.417969 130.042969 8.859375 129.421875 C 5.664062 124.902344 5.414062 120.125 6 114.75 C 7.015625 110.851562 8.371094 107.316406 10.6875 104.015625 C 13.074219 99.988281 12.710938 95.21875 12 90.75 C 10.960938 87.816406 9.503906 85.175781 7.972656 82.46875 C 5.339844 77.691406 5.21875 72.253906 6.484375 66.976562 C 9.289062 59.152344 14.34375 56.070312 21.429688 52.488281 C 25.957031 50.140625 28.765625 47.65625 30.9375 42.984375 C 31.519531 40.597656 31.519531 40.597656 31.757812 38.535156 C 32.71875 31.417969 34.636719 24.410156 40.5 19.78125 C 44.675781 16.910156 48.71875 16.304688 53.71875 16.359375 C 55.171875 16.367188 55.171875 16.367188 56.65625 16.375 C 58.710938 16.472656 60.300781 16.691406 62.25 17.25 C 67.164062 17.667969 70.828125 16.972656 75 14.25 C 76.957031 12.421875 78.789062 10.503906 80.632812 8.5625 C 88.667969 0.765625 99.746094 0.0742188 108.75 6.515625 Z M 108.75 6.515625 "/>
<path style=" stroke:none;fill-rule:nonzero;fill:rgb(100%,97.647059%,97.647059%);fill-opacity:1;" d="M 132 71.25 C 134.699219 72.949219 136.210938 74 137.109375 77.109375 C 135.546875 83.238281 128.507812 88.382812 124.167969 92.757812 C 123.503906 93.429688 122.839844 94.101562 122.15625 94.792969 C 120.757812 96.199219 119.363281 97.605469 117.964844 99.007812 C 116.175781 100.800781 114.402344 102.605469 112.625 104.410156 C 110.917969 106.140625 109.199219 107.863281 107.480469 109.585938 C 106.847656 110.234375 106.214844 110.878906 105.5625 111.546875 C 104.964844 112.140625 104.367188 112.738281 103.75 113.351562 C 103.230469 113.878906 102.710938 114.402344 102.171875 114.941406 C 99.273438 117.207031 95.976562 117.980469 92.34375 118.125 C 91.757812 118.164062 91.171875 118.203125 90.570312 118.242188 C 84.050781 116.691406 79.046875 110.003906 74.480469 105.386719 C 73.257812 104.148438 72.03125 102.921875 70.804688 101.691406 C 70.015625 100.902344 69.230469 100.113281 68.445312 99.320312 C 68.082031 98.957031 67.71875 98.59375 67.34375 98.21875 C 62.363281 93.167969 62.363281 93.167969 61.921875 89.625 C 62.25 87 62.25 87 63.375 85.171875 C 65.953125 83.558594 68.316406 83.484375 71.25 84 C 73.070312 85.230469 74.308594 86.25 75.796875 87.796875 C 76.199219 88.191406 76.601562 88.585938 77.015625 88.988281 C 78.359375 90.3125 79.679688 91.65625 81 93 C 82.042969 94.035156 83.085938 95.070312 84.128906 96.101562 C 86.851562 98.800781 89.558594 101.519531 92.25 104.25 C 94.207031 103.355469 95.191406 102.824219 96.5625 101.109375 C 97.917969 99.414062 99.023438 98.296875 100.65625 96.941406 C 105.851562 92.453125 110.582031 87.46875 115.40625 82.59375 C 117.371094 80.609375 119.339844 78.628906 121.304688 76.648438 C 121.753906 76.191406 122.203125 75.734375 122.667969 75.265625 C 125.867188 72.046875 127.371094 70.714844 132 71.25 Z M 132 71.25 "/>
<path style=" stroke:none;fill-rule:nonzero;fill:rgb(100%,38.039216%,38.039216%);fill-opacity:1;" d="M 144.75 70.5 C 146.53125 71.625 146.53125 71.625 147.75 73.5 C 148.28125 76.011719 148.4375 77.09375 147.75 79.5 C 145.558594 82.5625 142.871094 85.113281 140.171875 87.71875 C 139.386719 88.492188 138.605469 89.269531 137.828125 90.046875 C 136.191406 91.671875 134.546875 93.285156 132.894531 94.890625 C 130.78125 96.941406 128.6875 99.011719 126.597656 101.089844 C 124.59375 103.074219 122.585938 105.050781 120.578125 107.03125 C 120.195312 107.40625 119.816406 107.78125 119.425781 108.167969 C 118.339844 109.234375 117.25 110.292969 116.160156 111.355469 C 115.542969 111.957031 114.925781 112.558594 114.289062 113.179688 C 111.625 115.515625 109.285156 117.328125 105.65625 117.234375 C 102.75 117 102.75 117 100.5 115.5 C 100.929688 115.070312 101.359375 114.640625 101.804688 114.199219 C 105.855469 110.164062 109.90625 106.125 113.957031 102.082031 C 116.039062 100.003906 118.121094 97.929688 120.203125 95.851562 C 122.214844 93.851562 124.222656 91.847656 126.230469 89.84375 C 126.996094 89.078125 127.761719 88.3125 128.53125 87.546875 C 129.605469 86.480469 130.675781 85.410156 131.746094 84.335938 C 132.359375 83.726562 132.96875 83.117188 133.601562 82.488281 C 135.039062 81.101562 135.039062 81.101562 135.75 79.5 C 135.632812 78.269531 135.632812 78.269531 135.515625 77.015625 C 135.75 74.25 135.75 74.25 137.71875 72.046875 C 140.457031 70.371094 141.617188 69.886719 144.75 70.5 Z M 144.75 70.5 "/>
<path style=" stroke:none;fill-rule:nonzero;fill:rgb(100%,38.82353%,38.82353%);fill-opacity:1;" d="M 81.496094 82.742188 C 85.550781 83.917969 88.34375 87.59375 91.171875 90.5625 C 91.867188 91.253906 92.5625 91.941406 93.277344 92.65625 C 97.015625 96.480469 97.015625 96.480469 98.25 98.25 C 98.117188 101.429688 95.992188 102.929688 93.75 105 C 90.949219 103.832031 89.183594 102.105469 87.0625 99.960938 C 86.371094 99.261719 85.675781 98.5625 84.960938 97.84375 C 84.234375 97.105469 83.507812 96.363281 82.78125 95.625 C 82.050781 94.886719 81.316406 94.144531 80.582031 93.40625 C 78.71875 91.523438 76.859375 89.636719 75 87.75 C 74.503906 87.253906 74.011719 86.761719 73.5 86.25 C 75.949219 83.800781 77.960938 82.648438 81.496094 82.742188 Z M 81.496094 82.742188 "/>
<path style=" stroke:none;fill-rule:nonzero;fill:rgb(100%,45.882353%,45.882353%);fill-opacity:1;" d="M 17.25 55.5 C 16.148438 58.050781 14.714844 59.738281 12.75 61.6875 C 12.222656 62.21875 11.699219 62.746094 11.15625 63.292969 C 9.75 64.5 9.75 64.5 8.25 64.5 C 9.128906 60.871094 13.195312 55.5 17.25 55.5 Z M 17.25 55.5 "/>
<path style=" stroke:none;fill-rule:nonzero;fill:rgb(100%,54.509807%,54.509807%);fill-opacity:1;" d="M 41.25 19.5 C 41.746094 19.746094 42.238281 19.996094 42.75 20.25 C 39.1875 24.65625 39.1875 24.65625 37.5 25.5 C 37.253906 26.242188 37.003906 26.984375 36.75 27.75 C 36.253906 27.75 35.761719 27.75 35.25 27.75 C 36.296875 24.417969 37.953125 22.601562 40.5 20.25 C 40.746094 20.003906 40.996094 19.753906 41.25 19.5 Z M 41.25 19.5 "/>
<path style=" stroke:none;fill-rule:nonzero;fill:rgb(100%,73.333335%,73.333335%);fill-opacity:1;" d="M 32.25 34.5 C 32.496094 34.5 32.746094 34.5 33 34.5 C 33.039062 35.9375 33.070312 37.375 33.09375 38.8125 C 33.109375 39.613281 33.128906 40.414062 33.148438 41.238281 C 33.003906 43.445312 32.644531 44.644531 31.5 46.5 C 31.003906 46.5 30.511719 46.5 30 46.5 C 30.742188 42.539062 31.484375 38.578125 32.25 34.5 Z M 32.25 34.5 "/>
</g>
</svg>
