<?xml version="1.0" encoding="UTF-8"?>
<svg xmlns="http://www.w3.org/2000/svg" xmlns:xlink="http://www.w3.org/1999/xlink" width="512px" height="512px" viewBox="0 0 512 512" version="1.1">
<g id="surface1">
<path style=" stroke:none;fill-rule:nonzero;fill:rgb(100%,1.568628%,1.568628%);fill-opacity:1;" d="M 290 17.375 C 295.863281 21.957031 300.902344 26.960938 306 32.375 C 316.082031 42.652344 325.308594 46.222656 339.625 46.5 C 345.164062 46.382812 348.640625 45.785156 354 44 C 372.777344 42.507812 390.523438 41.660156 406 54 C 417.785156 66.179688 423.5625 77.34375 425.875 94.160156 C 428.484375 112.761719 432.417969 124.378906 447.5 136.375 C 451.179688 138.425781 454.894531 140.417969 458.710938 142.203125 C 474.988281 149.835938 487.242188 158.734375 494 176 C 499.71875 195.234375 494.769531 212.953125 485.757812 230.320312 C 485.054688 231.617188 484.351562 232.914062 483.625 234.25 C 477.773438 245.652344 476.460938 256.570312 480.25 268.875 C 483.453125 277.339844 487.535156 285.324219 491.828125 293.28125 C 497.863281 306.394531 497.722656 321.550781 493.75 335.25 C 487.828125 351.058594 476.617188 360.304688 462 368 C 460.335938 368.726562 458.667969 369.453125 456.953125 370.203125 C 443.535156 376.125 435.566406 382.140625 430 396 C 427.992188 403.953125 426.554688 412.015625 425.058594 420.078125 C 421.441406 438.628906 413.886719 450.90625 398.132812 461.695312 C 385.148438 468.9375 369.554688 469.925781 355.117188 467.015625 C 341.246094 464.261719 327.429688 464.453125 314.625 470.789062 C 307.617188 475.65625 302.023438 481.816406 296.175781 487.972656 C 284.3125 500.230469 271.878906 505.101562 254.96875 506.203125 C 236.085938 505.429688 222.839844 495.058594 210.25 481.875 C 198.167969 469.648438 189.8125 465.824219 172.75 465.5 C 164.984375 465.714844 157.648438 466.640625 150 468 C 132.542969 469.164062 117.984375 466.070312 104.25 454.75 C 92.410156 443.203125 88.597656 432.410156 85.945312 416.234375 C 82.578125 394.921875 82.578125 394.921875 70 378 C 63.449219 373.691406 56.640625 369.902344 49.652344 366.359375 C 40.925781 361.933594 34.632812 357.394531 28 350 C 26.554688 348.390625 25.113281 346.78125 23.625 345.125 C 15.101562 333.074219 14.4375 320.335938 16 306 C 18.707031 295.605469 22.324219 286.175781 28.5 277.375 C 34.867188 266.636719 33.894531 253.914062 32 242 C 29.226562 234.179688 25.339844 227.128906 21.257812 219.921875 C 14.242188 207.171875 13.914062 192.675781 17.296875 178.609375 C 24.765625 157.734375 38.25 149.523438 57.140625 139.96875 C 69.222656 133.710938 76.703125 127.085938 82.5 114.625 C 84.046875 108.261719 84.046875 108.261719 84.6875 102.757812 C 87.253906 83.78125 92.359375 65.09375 108 52.75 C 119.132812 45.097656 129.914062 43.476562 143.25 43.625 C 147.125 43.644531 147.125 43.644531 151.078125 43.664062 C 156.5625 43.929688 160.800781 44.507812 166 46 C 179.105469 47.109375 188.875 45.261719 200 38 C 205.21875 33.121094 210.109375 28.011719 215.023438 22.828125 C 236.445312 2.046875 265.988281 0.199219 290 17.375 Z M 290 17.375 "/>
<path style=" stroke:none;fill-rule:nonzero;fill:rgb(100%,97.647059%,97.647059%);fill-opacity:1;" d="M 352 190 C 359.203125 194.535156 363.230469 197.332031 365.625 205.625 C 361.460938 221.964844 342.683594 235.691406 331.117188 247.359375 C 329.34375 249.148438 327.574219 250.933594 325.75 252.777344 C 322.023438 256.527344 318.296875 260.277344 314.570312 264.023438 C 309.808594 268.804688 305.066406 273.613281 300.335938 278.425781 C 295.78125 283.046875 291.195312 287.636719 286.617188 292.234375 C 284.929688 293.957031 283.242188 295.679688 281.503906 297.453125 C 279.90625 299.042969 278.3125 300.632812 276.667969 302.273438 C 275.28125 303.671875 273.890625 305.070312 272.460938 306.511719 C 264.726562 312.554688 255.941406 314.617188 246.25 315 C 244.6875 315.101562 243.125 315.207031 241.515625 315.3125 C 224.136719 311.175781 210.789062 293.339844 198.613281 281.027344 C 195.359375 277.730469 192.085938 274.453125 188.808594 271.179688 C 186.710938 269.074219 184.617188 266.96875 182.523438 264.859375 C 181.554688 263.886719 180.585938 262.917969 179.585938 261.917969 C 166.304688 248.449219 166.304688 248.449219 165.125 239 C 166 232 166 232 169 227.125 C 175.878906 222.824219 182.183594 222.625 190 224 C 194.851562 227.285156 198.15625 230 202.125 234.125 C 203.195312 235.175781 204.269531 236.226562 205.371094 237.304688 C 208.953125 240.835938 212.476562 244.417969 216 248 C 218.777344 250.761719 221.558594 253.519531 224.34375 256.273438 C 231.605469 263.472656 238.816406 270.71875 246 278 C 251.214844 275.617188 253.84375 274.195312 257.5 269.625 C 261.113281 265.105469 264.058594 262.125 268.421875 258.507812 C 282.265625 246.542969 294.886719 233.246094 307.75 220.25 C 312.988281 214.957031 318.234375 209.671875 323.484375 204.390625 C 324.683594 203.175781 325.878906 201.960938 327.113281 200.710938 C 335.644531 192.128906 339.652344 188.574219 352 190 Z M 352 190 "/>
<path style=" stroke:none;fill-rule:nonzero;fill:rgb(100%,38.039216%,38.039216%);fill-opacity:1;" d="M 386 188 C 390.75 191 390.75 191 394 196 C 395.414062 202.699219 395.832031 205.585938 394 212 C 388.15625 220.164062 380.992188 226.964844 373.789062 233.914062 C 371.703125 235.980469 369.617188 238.050781 367.539062 240.125 C 363.179688 244.453125 358.792969 248.757812 354.386719 253.039062 C 348.753906 258.515625 343.164062 264.03125 337.589844 269.566406 C 332.253906 274.863281 326.898438 280.140625 321.539062 285.414062 C 320.523438 286.414062 319.511719 287.414062 318.464844 288.445312 C 315.574219 291.289062 312.671875 294.117188 309.765625 296.945312 C 308.117188 298.550781 306.46875 300.160156 304.769531 301.816406 C 297.667969 308.042969 291.433594 312.871094 281.75 312.625 C 274 312 274 312 268 308 C 269.148438 306.855469 270.296875 305.710938 271.480469 304.535156 C 282.285156 293.769531 293.085938 282.996094 303.882812 272.222656 C 309.433594 266.679688 314.984375 261.144531 320.542969 255.609375 C 325.902344 250.269531 331.257812 244.925781 336.609375 239.582031 C 338.65625 237.539062 340.703125 235.5 342.75 233.460938 C 345.613281 230.613281 348.472656 227.753906 351.328125 224.898438 C 352.957031 223.273438 354.585938 221.648438 356.265625 219.972656 C 360.105469 216.269531 360.105469 216.269531 362 212 C 361.691406 208.71875 361.691406 208.71875 361.375 205.375 C 362 198 362 198 367.25 192.125 C 374.554688 187.660156 377.652344 186.367188 386 188 Z M 386 188 "/>
<path style=" stroke:none;fill-rule:nonzero;fill:rgb(100%,38.82353%,38.82353%);fill-opacity:1;" d="M 217.320312 220.644531 C 228.132812 223.777344 235.585938 233.582031 243.125 241.5 C 244.976562 243.339844 246.828125 245.179688 248.738281 247.078125 C 258.714844 257.28125 258.714844 257.28125 262 262 C 261.640625 270.476562 255.980469 274.480469 250 280 C 242.53125 276.890625 237.824219 272.285156 232.171875 266.5625 C 230.320312 264.699219 228.46875 262.835938 226.5625 260.914062 C 224.625 258.941406 222.6875 256.972656 220.75 255 C 218.796875 253.027344 216.84375 251.054688 214.890625 249.085938 C 209.917969 244.066406 204.957031 239.035156 200 234 C 198.679688 232.679688 197.359375 231.359375 196 230 C 202.535156 223.464844 207.894531 220.394531 217.320312 220.644531 Z M 217.320312 220.644531 "/>
<path style=" stroke:none;fill-rule:nonzero;fill:rgb(100%,45.882353%,45.882353%);fill-opacity:1;" d="M 46 148 C 43.0625 154.796875 39.238281 159.300781 34 164.5 C 32.597656 165.914062 31.195312 167.324219 29.75 168.78125 C 26 172 26 172 22 172 C 24.34375 162.328125 35.183594 148 46 148 Z M 46 148 "/>
<path style=" stroke:none;fill-rule:nonzero;fill:rgb(100%,54.509807%,54.509807%);fill-opacity:1;" d="M 110 52 C 111.320312 52.660156 112.640625 53.320312 114 54 C 104.5 65.75 104.5 65.75 100 68 C 99.339844 69.980469 98.679688 71.960938 98 74 C 96.679688 74 95.359375 74 94 74 C 96.792969 65.113281 101.207031 60.269531 108 54 C 108.660156 53.339844 109.320312 52.679688 110 52 Z M 110 52 "/>
<path style=" stroke:none;fill-rule:nonzero;fill:rgb(100%,73.333335%,73.333335%);fill-opacity:1;" d="M 86 92 C 86.660156 92 87.320312 92 88 92 C 88.109375 95.832031 88.1875 99.667969 88.25 103.5 C 88.296875 105.632812 88.34375 107.769531 88.390625 109.96875 C 88.007812 115.847656 87.054688 119.046875 84 124 C 82.679688 124 81.359375 124 80 124 C 81.980469 113.441406 83.960938 102.878906 86 92 Z M 86 92 "/>
</g>
</svg>
